<?xml version="1.0" encoding="UTF-8"?>
<!DOCTYPE svg PUBLIC "-//W3C//DTD SVG 1.1//EN" "http://www.w3.org/Graphics/SVG/1.1/DTD/svg11.dtd">
<!-- Creator: CorelDRAW -->
<svg xmlns="http://www.w3.org/2000/svg" xml:space="preserve" width="200px" height="196px" version="1.1" style="shape-rendering:geometricPrecision; text-rendering:geometricPrecision; image-rendering:optimizeQuality; fill-rule:evenodd; clip-rule:evenodd"
viewBox="0 0 10.536 10.329"
 xmlns:xlink="http://www.w3.org/1999/xlink"
 xmlns:xodm="http://www.corel.com/coreldraw/odm/2003">
 <defs>
  <style type="text/css">
   <![CDATA[
    .str0 {stroke:white;stroke-width:0.006;stroke-miterlimit:22.9256}
    .fil0 {fill:#E5DED1}
    .fil1 {fill:white}
    .fil2 {fill:url(#id2)}
   ]]>
  </style>
   <mask id="id0">
  <linearGradient id="id1" gradientUnits="userSpaceOnUse" x1="-0.271" y1="5.649" x2="4.508" y2="5.888">
   <stop offset="0" style="stop-opacity:1; stop-color:white"/>
   <stop offset="1" style="stop-opacity:0; stop-color:white"/>
  </linearGradient>
    <rect style="fill:url(#id1)" x="0.267" y="0.036" width="6.745" height="10.293"/>
   </mask>
  <radialGradient id="id2" gradientUnits="userSpaceOnUse" gradientTransform="matrix(-1.08946 0.0185134 -0.0276163 -0.636166 11 8)" cx="5.378" cy="4.894" r="4.031" fx="5.378" fy="4.894">
   <stop offset="0" style="stop-opacity:1; stop-color:#9A0606"/>
   <stop offset="0.760784" style="stop-opacity:1; stop-color:#770606"/>
   <stop offset="1" style="stop-opacity:1; stop-color:#540606"/>
  </radialGradient>
 </defs>
 <g id="Layer_x0020_1">
  <metadata id="CorelCorpID_0Corel-Layer"/>
  <rect class="fil0" width="10.536" height="10.287"/>
  <path class="fil1 str0" style="mask:url(#id0)" d="M5.447 0.039c0.544,0 1.069,0.084 1.562,0.239 -2.096,0.658 -3.615,2.605 -3.615,4.905 0,2.299 1.519,4.246 3.615,4.905 -0.493,0.155 -1.018,0.238 -1.562,0.238 -2.859,0 -5.177,-2.303 -5.177,-5.143 0,-2.841 2.318,-5.144 5.177,-5.144z"/>
  <path class="fil2" d="M7.993 3.25c-0.091,0.008 -0.185,0.046 -0.251,0.085l-0.069 0.047c-0.002,0.002 -0.009,0.007 -0.012,0.008 -0.018,0.015 -0.006,0.005 -0.015,0.014 -0.059,0.065 -0.056,0.045 -0.081,0.084 -0.111,0.173 -0.154,0.28 -0.127,0.514 0.021,0.178 0.137,0.358 0.282,0.456 0.14,0.096 0.313,0.123 0.48,0.1 0.106,-0.015 0.265,-0.076 0.335,-0.159 0.012,-0.015 0.024,-0.027 0.038,-0.04 0.198,-0.183 0.246,-0.556 0.099,-0.804 -0.136,-0.229 -0.392,-0.33 -0.679,-0.305zm-6.417 1.766l-0.002 0.049c0.04,0.008 0.09,0.015 0.127,0.024 0.037,0.129 0.013,0.299 0.019,0.445 -0.14,-0.158 -0.38,-0.138 -0.543,-0.041 0,0 -0.024,0.015 -0.024,0.015 -0.029,0.021 -0.004,0.002 -0.025,0.022 -0.072,0.069 -0.068,0.056 -0.134,0.159 -0.052,0.081 -0.078,0.191 -0.085,0.294 -0.017,0.231 0.1,0.444 0.245,0.513 0.179,0.086 0.368,0.066 0.51,-0.061l0.038 -0.033c0.013,-0.012 0.004,-0.005 0.021,-0.016l-0.006 0.157 0.303 -0.041c0.06,-0.013 0.023,0.011 0.04,-0.026 -0.007,-0.087 -0.077,0.011 -0.113,-0.095 -0.031,-0.092 -0.004,-1.251 -0.015,-1.446 -0.006,0 -0.346,0.077 -0.356,0.081zm7.282 0.393c-0.155,0.019 -0.311,0.118 -0.393,0.244 -0.009,0.014 -0.018,0.033 -0.024,0.045 -0.019,0.038 -0.031,0.057 -0.044,0.101 -0.117,0.402 0.184,0.811 0.628,0.744 0.319,-0.049 0.513,-0.35 0.475,-0.655 -0.038,-0.304 -0.3,-0.522 -0.642,-0.479zm-3.132 -1.163l-0.044 -0.037c-0.062,0.088 -0.105,0.139 -0.231,0.18 -0.157,0.052 -0.287,0.019 -0.412,-0.065 -0.069,-0.046 -0.084,-0.068 -0.136,-0.173 -0.051,-0.103 -0.058,-0.24 -0.049,-0.357l0.866 -0.001c0.003,-0.141 0.003,-0.234 -0.071,-0.349l-0.048 -0.059c-0.142,-0.154 -0.453,-0.19 -0.67,-0.086 -0.476,0.229 -0.483,1.029 0.033,1.227 0.18,0.069 0.402,0.05 0.568,-0.054l0.079 -0.067c0.028,-0.028 0.1,-0.111 0.115,-0.159zm-4.083 -0.245l-0.002 0.537c0.061,-0.004 0.04,0.01 0.063,-0.028 0.03,-0.049 0.032,-0.074 0.172,-0.03 0.26,0.083 0.376,0.149 0.674,0.008 0.019,-0.009 0.036,-0.021 0.054,-0.033 0.022,-0.015 0.029,-0.022 0.049,-0.038 0.108,-0.079 0.208,-0.276 0.165,-0.482 -0.019,-0.093 -0.072,-0.168 -0.113,-0.217 -0.138,-0.168 -0.671,-0.295 -0.776,-0.557 -0.041,-0.103 -0.012,-0.244 0.065,-0.312 0.011,-0.01 0.01,-0.008 0.02,-0.019 0.118,-0.124 0.453,-0.104 0.588,0.149 0.038,0.072 0.053,0.099 0.074,0.176 0.017,0.06 0.001,0.043 0.045,0.046 0.016,-0.02 0.004,0.007 0.01,-0.023l0 -0.095c-0.002,-0.041 -0.003,-0.083 -0.003,-0.124 0.002,-0.061 0.008,-0.179 -0.01,-0.24l-0.039 -0.002c-0.025,0.102 -0.03,0.099 -0.202,0.028 -0.161,-0.066 -0.37,-0.095 -0.527,0.011 -0.078,0.053 -0.11,0.071 -0.17,0.16 -0.13,0.195 -0.088,0.458 0.06,0.612 0.105,0.109 0.511,0.285 0.623,0.374 0.179,0.143 0.176,0.408 -0.021,0.534 -0.176,0.114 -0.491,0.018 -0.599,-0.127 -0.06,-0.08 -0.087,-0.11 -0.121,-0.207 -0.041,-0.118 -0.004,-0.096 -0.079,-0.101zm4.655 -0.477l-0.005 -0.264c-0.062,0.003 -0.233,0.041 -0.361,0.052 -0.007,0.001 -0.023,0.002 -0.029,0.003l-0.034 0.01 0 0.048c0.059,0.021 0.163,-0.009 0.176,0.184 0.009,0.13 0.003,0.555 0.003,0.715 -0.001,0.164 -0.017,0.174 -0.126,0.194 -0.003,0.001 -0.014,0.003 -0.017,0.004 -0.002,0 -0.005,0.001 -0.008,0.002l-0.017 0.054 0.582 0.003 0.005 -0.054c-0.116,-0.052 -0.172,0.041 -0.173,-0.213l0.001 -0.58c-0.001,-0.115 0.058,-0.18 0.152,-0.228 0.124,-0.063 0.36,-0.079 0.429,0.067 0.051,0.107 0.031,0.596 0.03,0.741 -0.001,0.224 -0.062,0.177 -0.17,0.213l0 0.055 0.573 -0.002 0.003 -0.058c-0.2,-0.039 -0.158,-0.041 -0.159,-0.469 -0.001,-0.196 0.028,-0.405 -0.055,-0.574 -0.022,-0.047 -0.02,-0.035 -0.07,-0.086 -0.075,-0.076 -0.25,-0.105 -0.368,-0.083 -0.088,0.017 -0.159,0.059 -0.217,0.094 -0.058,0.037 0.01,0.001 -0.078,0.077 -0.027,0.023 -0.042,0.064 -0.067,0.095zm-3.321 -0.214l-0.003 0.06c0.215,0.02 0.174,0.072 0.174,0.448 0,0.168 -0.026,0.432 0.043,0.573l0.032 0.047c0.037,0.039 0.059,0.071 0.136,0.097 0.088,0.03 0.181,0.037 0.277,0.022 0.162,-0.025 0.244,-0.089 0.346,-0.195l0.039 -0.044 -0.005 0.247 0.407 -0.058c0.013,-0.005 0.009,-0.04 0.008,-0.051 -0.075,-0.031 -0.16,0.028 -0.164,-0.174 -0.003,-0.112 0,-0.227 0,-0.339 0,-0.217 0.011,-0.46 -0.001,-0.674l-0.424 0.045 -0.006 0.055c0.151,0.027 0.179,0.01 0.181,0.188l0 0.56c0,0.088 0.016,0.114 -0.037,0.156 -0.021,0.017 -0.032,0.021 -0.049,0.038 -0.061,0.056 -0.101,0.081 -0.189,0.1 -0.117,0.025 -0.224,-0.008 -0.282,-0.075 -0.067,-0.079 -0.059,-0.2 -0.06,-0.315 0,-0.248 -0.009,-0.518 0.002,-0.764 -0.147,0.029 -0.276,0.038 -0.425,0.053zm5.046 0.011c-0.034,0.007 -0.061,0.019 -0.09,0.033 -0.069,0.033 -0.136,0.12 -0.166,0.199 -0.081,0.218 -0.084,0.614 0.066,0.802 0.018,0.022 0.013,0.013 0.028,0.029 0.022,0.026 0.029,0.05 0.101,0.081 0.186,0.081 0.374,-0.004 0.466,-0.211 0.132,-0.3 0.063,-1.027 -0.405,-0.933zm-0.526 2.869l0.011 -0.012 -0.048 -0.009c-0.051,-0.001 -0.105,0.048 -0.136,0.074 -0.082,0.068 -0.069,0.187 -0.011,0.244 0.031,0.03 0.083,0.045 0.137,0.056 -0.091,0.059 -0.241,0.113 -0.266,0.226 -0.014,0.064 0.006,0.134 0.041,0.175 0.205,0.239 0.653,0.174 0.884,0.034 0.201,-0.122 0.312,-0.479 0.003,-0.575 -0.215,-0.067 -0.547,-0.002 -0.63,-0.065 -0.052,-0.04 -0.017,-0.121 0.015,-0.148zm-2.11 -0.276c-0.111,0.031 -0.439,0.084 -0.543,0.17 -0.074,0.061 -0.113,0.118 -0.102,0.237 0.014,0.15 0.137,0.236 0.299,0.229 0.126,-0.006 0.294,-0.109 0.35,-0.179 0.004,0.066 0.009,0.078 0.047,0.125 0.026,0.033 0.053,0.055 0.127,0.054 0.049,-0.001 0.097,-0.017 0.13,-0.04 0.045,-0.032 0.075,-0.046 0.08,-0.118 -0.07,0.029 -0.077,0.051 -0.158,0.03 -0.059,-0.192 0.027,-0.705 -0.046,-0.84 -0.041,-0.075 -0.035,-0.074 -0.112,-0.114 -0.062,-0.032 -0.097,-0.043 -0.167,-0.053 -0.137,-0.02 -0.262,0.016 -0.364,0.076 -0.047,0.028 -0.089,0.064 -0.116,0.108 -0.027,0.044 -0.045,0.125 0,0.16 0.049,0.039 0.148,0.006 0.162,-0.039 0.018,-0.058 -0.037,-0.235 0.194,-0.247 0.255,-0.012 0.213,0.291 0.219,0.441zm2.073 0.255l0.048 0.009 -0.011 0.012c0.111,-0.068 0.084,0.018 0.314,-0.03 0.1,-0.02 0.186,-0.069 0.238,-0.12 0.052,-0.05 0.105,-0.144 0.108,-0.25 0.002,-0.094 -0.042,-0.233 -0.091,-0.271l0.264 0.046 0.011 -0.187c-0.404,0.129 -0.214,0.131 -0.402,0.058 -0.212,-0.084 -0.491,-0.018 -0.624,0.161 -0.095,0.127 -0.084,0.338 0.009,0.435 0.065,0.066 0.075,0.068 0.181,0.111 -0.004,0.001 -0.015,0.005 -0.021,0.009l-0.024 0.017zm-4.379 0.073c-0.048,0.026 -0.099,0.119 -0.199,0.151 -0.097,0.032 -0.214,0.025 -0.301,-0.019 -0.043,-0.022 -0.065,-0.051 -0.095,-0.078 -0.099,-0.091 -0.112,-0.281 -0.115,-0.41l0.726 0.001c0.016,-0.224 -0.048,-0.379 -0.263,-0.453 -0.066,-0.022 -0.147,-0.029 -0.219,-0.023 -0.066,0.006 -0.14,0.022 -0.192,0.052 -0.068,0.039 -0.09,0.071 -0.134,0.107 -0.032,0.027 -0.025,0.028 -0.05,0.067 -0.056,0.084 -0.087,0.162 -0.097,0.271 -0.017,0.174 0.02,0.342 0.127,0.468 0.063,0.074 0.125,0.119 0.22,0.15 0.166,0.054 0.336,0.023 0.473,-0.07l0.046 -0.041c0.002,-0.002 0.009,-0.007 0.011,-0.009l0.057 -0.078c0.03,-0.046 0.031,-0.042 0.005,-0.086zm2.786 0.273c0.033,0.014 0.087,0.008 0.123,0.008 0.045,0 0.09,0 0.136,0 0.052,0 0.25,0.014 0.26,-0.018 -0.003,-0.063 0.017,-0.035 -0.045,-0.046 -0.044,-0.008 -0.118,0.013 -0.121,-0.137 -0.002,-0.112 0,-0.227 0,-0.339 0,-0.136 -0.019,-0.237 0.033,-0.309 0.097,-0.136 0.355,-0.165 0.448,-0.063 0.02,0.022 0.003,-0.004 0.02,0.027 0.051,0.092 0.033,0.518 0.033,0.645 0,0.052 0.002,0.105 -0.029,0.144 -0.043,0.053 -0.086,0.023 -0.129,0.049l0.001 0.05 0.515 -0.003 0.003 -0.047 -0.056 -0.018c-0.126,-0.021 -0.09,-0.156 -0.09,-0.388 0.001,-0.153 0.02,-0.392 -0.043,-0.509 -0.016,-0.028 -0.043,-0.05 -0.064,-0.073 -0.096,-0.104 -0.371,-0.116 -0.517,0.017 -0.141,0.128 -0.084,0.1 -0.128,0.147l-0.002 -0.242c-0.06,0.008 -0.122,0.023 -0.181,0.035 -0.031,0.006 -0.059,0.013 -0.091,0.017 -0.021,0.003 -0.036,0.002 -0.052,0.004 -0.069,0.01 -0.033,-0.013 -0.045,0.025 -0.017,0.056 0.024,0.036 0.071,0.045 0.032,0.007 0.05,0.023 0.063,0.041 0.035,0.048 0.023,0.133 0.023,0.193 0,0.08 0.013,0.586 -0.012,0.64 -0.013,0.026 -0.031,0.038 -0.06,0.045 -0.076,0.02 -0.064,-0.025 -0.064,0.06zm-2.535 -1.14l0.057 0.003c0.039,-0.08 0.021,-0.17 0.158,-0.269 0.1,-0.072 0.263,-0.045 0.389,-0.053 -0.01,0.359 -0.002,0.813 -0.001,1.188 0.001,0.17 -0.017,0.207 -0.178,0.224l0 0.054 0.61 0.001 0.002 -0.061c-0.169,0.006 -0.191,-0.036 -0.19,-0.198l0 -1.201c0.459,-0.032 0.432,0.072 0.535,0.312l0.056 0.002 -0.048 -0.4 -1.337 -0.001 -0.053 0.399zm5.539 0.101c-0.313,0.067 -0.315,0.639 -0.155,0.886 0.022,0.035 0.021,0.021 0.048,0.048 0.022,0.023 0.025,0.03 0.061,0.044 0.184,0.07 0.32,-0.014 0.399,-0.186 0.045,-0.101 0.047,-0.255 0.038,-0.37 -0.015,-0.222 -0.125,-0.48 -0.391,-0.422zm-7.448 0.028c-0.291,0.071 -0.376,0.62 -0.163,0.818 0.045,0.043 0.081,0.09 0.194,0.096 0.055,0.004 0.109,-0.01 0.157,-0.029 0.032,-0.012 0.096,-0.053 0.104,-0.075 0.011,-0.03 0.005,-0.462 0.005,-0.554 0,-0.082 0.005,-0.092 -0.042,-0.147 -0.026,-0.03 -0.055,-0.065 -0.096,-0.086 -0.045,-0.023 -0.107,-0.036 -0.159,-0.023zm6.083 1.055c-0.104,0.033 -0.223,0.264 -0.033,0.388 0.165,0.108 0.544,0.115 0.632,-0.098 0.035,-0.084 0.018,-0.221 -0.055,-0.256 -0.066,-0.031 -0.184,-0.027 -0.261,-0.027 -0.038,0 -0.275,-0.009 -0.283,-0.007zm0.16 -1.091c-0.077,0.011 -0.127,0.072 -0.156,0.128 -0.061,0.117 -0.052,0.357 0.058,0.463 0.001,0.001 0.003,0.003 0.005,0.004 0.16,0.152 0.399,-0.01 0.363,-0.322 -0.019,-0.16 -0.101,-0.298 -0.27,-0.273zm-2.805 -1.757l0.616 -0.002c-0.006,-0.118 -0.014,-0.302 -0.156,-0.371 -0.045,-0.022 -0.096,-0.029 -0.149,-0.026 -0.198,0.01 -0.292,0.221 -0.311,0.399zm-2.481 2.1l0.505 0c0.013,-0.03 0.015,-0.356 -0.25,-0.337 -0.179,0.013 -0.265,0.235 -0.255,0.337zm3.007 0.167c-0.112,0.031 -0.303,0.078 -0.377,0.156 -0.118,0.124 0.014,0.434 0.31,0.213 0.074,-0.055 0.067,-0.032 0.066,-0.151 0,-0.072 0.003,-0.146 0.001,-0.218zm0.825 -2.868c0.05,-0.02 0.058,-0.134 0.184,-0.147 0.096,-0.009 0.183,0.053 0.261,0.083 0.196,0.072 0.281,-0.01 0.361,-0.174l0.014 -0.068c-0.061,-0.004 -0.029,0.037 -0.083,0.077 -0.211,0.156 -0.397,-0.227 -0.656,0.002 -0.043,0.038 -0.072,0.115 -0.089,0.174 -0.011,0.039 -0.019,0.032 0.008,0.053z"/>
 </g>
</svg>
